<svg width="369" height="93" viewBox="0 0 369 93" fill="none" xmlns="http://www.w3.org/2000/svg">
<path fill-rule="evenodd" clip-rule="evenodd" d="M118.05 73.2268L122.656 62.5684C127.63 66.2732 134.257 68.199 140.796 68.199C145.622 68.199 148.677 66.3467 148.677 63.5387C148.604 55.6883 119.763 61.8334 119.541 42.1484C119.467 32.1516 128.382 24.4481 141.017 24.4481C148.53 24.4481 156.028 26.3005 161.386 30.5198L157.076 41.3987C152.176 38.282 146.08 36.0621 140.279 36.0621C136.338 36.0621 133.74 37.9145 133.74 40.2814C133.814 47.9848 162.877 43.7656 163.172 62.5684C163.172 72.7858 154.478 79.9747 141.991 79.9747C132.84 79.96 124.442 77.8136 118.05 73.2268V73.2268ZM294.89 58.7167C292.587 62.7155 288.278 65.4499 283.289 65.4499C275.923 65.4499 269.99 59.5253 269.99 52.2041C269.99 44.8829 275.938 38.9583 283.289 38.9583C288.263 38.9583 292.587 41.6927 294.89 45.6914L307.598 38.6642C302.846 30.2257 293.694 24.4481 283.289 24.4481C267.894 24.4481 255.407 36.8854 255.407 52.2188C255.407 67.5522 267.894 79.9894 283.289 79.9894C293.768 79.9894 302.846 74.2853 307.598 65.7733L294.89 58.7167ZM169.563 1.41132H185.474V78.9309H169.563V1.41132ZM313.842 1.41132V78.9309H329.753V55.6736L348.631 78.9309H369L344.985 51.3073L367.214 25.536H347.731L329.738 46.9263V1.41132H313.842Z" fill="#BBBDC7"/>
<path d="M232.75 58.8637C230.448 62.642 225.695 65.4499 220.337 65.4499C212.972 65.4499 207.039 59.5253 207.039 52.2041C207.039 44.8829 212.987 38.9583 220.337 38.9583C225.695 38.9583 230.448 41.9132 232.75 45.7649V58.8637ZM232.75 25.5507V31.8429C230.153 27.4766 223.688 24.4334 216.913 24.4334C202.935 24.4334 191.939 36.7237 191.939 52.1306C191.939 67.5375 202.935 79.9747 216.913 79.9747C223.673 79.9747 230.138 76.9463 232.75 72.5653V78.8574H248.662V25.5507H232.75Z" fill="#BBBDC7"/>
<path fill-rule="evenodd" clip-rule="evenodd" d="M19.7042 58.7902C19.7042 64.2003 15.3205 68.5666 9.88879 68.5666C4.45711 68.5666 0.0733948 64.1856 0.0733948 58.7902C0.0733948 53.3949 4.45711 49.0139 9.88879 49.0139H19.7042V58.7902ZM24.6045 58.7902C24.6045 53.3802 28.9882 49.0139 34.4199 49.0139C39.8516 49.0139 44.2353 53.3802 44.2353 58.7902V83.2237C44.2353 88.6337 39.8516 93 34.4199 93C28.9882 93 24.6045 88.6337 24.6045 83.2237V58.7902Z" fill="#BBBDC7"/>
<path fill-rule="evenodd" clip-rule="evenodd" d="M34.4203 19.5526C28.9886 19.5526 24.6049 15.1864 24.6049 9.77632C24.6049 4.36627 28.9886 0 34.4203 0C39.852 0 44.2357 4.36627 44.2357 9.77632V19.5526H34.4203ZM34.4203 24.507C39.852 24.507 44.2357 28.8732 44.2357 34.2833C44.2357 39.6933 39.852 44.0596 34.4203 44.0596H9.8154C4.38372 44.0596 0 39.6786 0 34.2833C0 28.8879 4.38372 24.507 9.8154 24.507H34.4203Z" fill="#BBBDC7"/>
<path fill-rule="evenodd" clip-rule="evenodd" d="M73.741 34.2833C73.741 28.8732 78.1247 24.507 83.5564 24.507C88.988 24.507 93.3718 28.8732 93.3718 34.2833C93.3718 39.6933 88.988 44.0596 83.5564 44.0596H73.741V34.2833ZM68.8406 34.2833C68.8406 39.6933 64.4569 44.0596 59.0252 44.0596C53.5936 44.0596 49.2098 39.6933 49.2098 34.2833V9.77632C49.2098 4.36627 53.5936 0 59.0252 0C64.4569 0 68.8406 4.36627 68.8406 9.77632V34.2833Z" fill="#BBBDC7"/>
<path fill-rule="evenodd" clip-rule="evenodd" d="M59.0252 73.4474C64.4569 73.4474 68.8406 77.8136 68.8406 83.2237C68.8406 88.6337 64.4569 93 59.0252 93C53.5936 93 49.2098 88.6337 49.2098 83.2237V73.4474H59.0252ZM59.0252 68.5666C53.5936 68.5666 49.2098 64.2003 49.2098 58.7902C49.2098 53.3802 53.5936 49.0139 59.0252 49.0139H83.6302C89.0618 49.0139 93.4456 53.3802 93.4456 58.7902C93.4456 64.2003 89.0618 68.5666 83.6302 68.5666H59.0252Z" fill="#BBBDC7"/>
</svg>
