<svg width="350" height="59" viewBox="0 0 350 59" fill="none" xmlns="http://www.w3.org/2000/svg">
<path d="M81.5679 52.3625C81.5679 54.1502 81.1645 56.0618 79.7823 57.525H115.678V39.6008C113.187 40.7395 110.114 41.3 107.148 41.3H99.3646V35.4H103.446C105.665 35.4 107.634 35.6124 109.746 36.5092V21.0158C107.634 21.9126 105.665 22.125 103.446 22.125H99.3646V15.4875H107.148C110.114 15.4875 113.187 16.048 115.678 17.1808V0H79.7171C81.0993 1.1918 81.5679 3.3748 81.5679 5.1625V52.3625ZM50.4238 22.125V16.225H51.176C53.2072 16.225 55.5641 16.5495 57.0976 17.3637V0H31.9011V57.525H52.2776C50.8954 56.3332 50.4238 54.1502 50.4238 52.3625V36.1375H60.0637V52.3625C60.0637 54.1502 59.595 56.3332 58.2098 57.525H78.6018V0H60.0637V22.125H50.4238ZM6.01467 16.225H10.3814V52.3625C10.3814 54.1502 9.91036 56.3332 8.52756 57.525H28.9195V0H0L0 17.3637C1.62614 16.5495 3.98348 16.225 6.01467 16.225V16.225ZM312.906 22.125H290.713C289.58 22.125 288.275 22.0188 286.97 21.6058V35.9192C288.275 35.5121 289.58 35.4 290.713 35.4H296.61V39.825C295.88 40.474 294.291 40.8339 292.665 40.8339C285.92 40.8339 280.961 35.5416 280.961 29.1342C280.961 22.715 285.784 16.9625 292.529 16.9625C296.61 16.9625 301.213 18.29 306.25 20.6559V0H291.419C275.408 0 262.648 12.3251 262.648 28.9867C262.648 45.3002 275.497 59 292.161 59C301.344 59 309.898 55.283 314.365 50.74C313.475 49.1116 312.906 47.495 312.906 45.5421V22.125ZM341.469 15.4875C344.436 15.4875 347.508 16.048 350 17.1808V0H314.039C315.421 1.1918 315.89 3.3748 315.89 5.1625V52.3625C315.89 54.1502 315.486 56.0618 314.104 57.525H350V39.6008C347.508 40.7395 344.436 41.3 341.469 41.3H333.686V35.4H337.768C339.986 35.4 341.956 35.6124 344.068 36.5092V21.0158C341.956 21.9126 339.986 22.125 337.768 22.125H333.686V15.4875H341.469ZM255.452 31.565C258.543 28.1725 260.424 23.7239 260.424 19.1986C260.424 5.94721 250.505 0.00590576 239.857 0.00590576L216.905 0C218.281 1.1918 218.756 3.35709 218.756 5.13889L218.75 52.3625C218.75 54.1384 218.269 56.0736 216.893 57.525H238.985C237.602 56.0736 237.288 54.044 237.288 52.3625V40.6569C243.624 41.8546 247.841 47.7015 247.841 52.3861C247.841 54.162 247.42 56.0736 246.044 57.525H268.076C266.694 56.0736 266.338 53.9673 266.207 52.1914C265.466 42.0375 261.954 34.8749 255.452 31.565V31.565ZM237.288 25.8892V15.4108C240.254 15.4108 244.039 16.225 244.039 20.65C244.039 25.075 240.254 25.8892 237.288 25.8892ZM156.462 31.7125L150.529 15.4875H159.428L165.36 0H123.834C125.134 1.3039 126.35 2.7612 127.245 4.4663L150.215 57.525H162.762L181.673 13.275V52.3625C181.662 54.1974 181.205 56.3332 179.817 57.525H215.784V39.6008C213.322 40.7395 210.225 42.0375 207.259 42.0375H199.47V35.4H203.545C205.776 35.4 207.74 35.6124 209.851 36.5092V21.0158C207.74 21.9126 205.776 22.125 203.545 22.125H199.47V16.225H207.259C210.225 16.225 213.322 16.7855 215.784 17.9242V0H168.326L156.462 31.7125Z" fill="#BBBDC7"/>
</svg>
