<svg width="253" height="79" viewBox="0 0 253 79" fill="none" xmlns="http://www.w3.org/2000/svg">
<path d="M61.344 36.752C61.344 35.472 60.8 34.448 59.712 33.68C58.624 32.912 57.28 32.208 55.68 31.568C54.08 30.928 52.32 30.288 50.4 29.648C48.48 28.944 46.72 28.016 45.12 26.864C43.52 25.648 42.176 24.144 41.088 22.352C40 20.496 39.456 18.128 39.456 15.248C39.456 10.512 40.864 6.896 43.68 4.4C46.496 1.904 50.56 0.656 55.872 0.656C59.52 0.656 62.816 1.04 65.76 1.808C68.704 2.576 71.008 3.44 72.672 4.4L69.888 13.424C68.416 12.848 66.56 12.24 64.32 11.6C62.08 10.96 59.808 10.64 57.504 10.64C53.792 10.64 51.936 12.08 51.936 14.96C51.936 16.112 52.48 17.04 53.568 17.744C54.656 18.448 56 19.12 57.6 19.76C59.2 20.336 60.96 20.976 62.88 21.68C64.8 22.384 66.56 23.312 68.16 24.464C69.76 25.552 71.104 26.992 72.192 28.784C73.28 30.576 73.824 32.88 73.824 35.696C73.824 40.56 72.256 44.4 69.12 47.216C66.048 49.968 61.408 51.344 55.2 51.344C51.808 51.344 48.608 50.896 45.6 50C42.656 49.168 40.256 48.176 38.4 47.024L41.856 37.712C43.328 38.544 45.28 39.376 47.712 40.208C50.144 40.976 52.64 41.36 55.2 41.36C57.056 41.36 58.528 41.008 59.616 40.304C60.768 39.6 61.344 38.416 61.344 36.752ZM79.668 26C79.668 17.872 81.652 11.632 85.62 7.28C89.588 2.864 95.156 0.656 102.324 0.656C106.164 0.656 109.492 1.264 112.308 2.48C115.124 3.696 117.46 5.424 119.316 7.664C121.172 9.84 122.548 12.496 123.444 15.632C124.404 18.768 124.884 22.224 124.884 26C124.884 34.128 122.9 40.4 118.932 44.816C115.028 49.168 109.492 51.344 102.324 51.344C98.484 51.344 95.156 50.736 92.34 49.52C89.524 48.304 87.156 46.608 85.236 44.432C83.38 42.192 81.972 39.504 81.012 36.368C80.116 33.232 79.668 29.776 79.668 26ZM92.532 26C92.532 28.112 92.724 30.064 93.108 31.856C93.492 33.648 94.068 35.216 94.836 36.56C95.604 37.904 96.596 38.96 97.812 39.728C99.092 40.432 100.596 40.784 102.324 40.784C105.588 40.784 108.02 39.6 109.62 37.232C111.22 34.864 112.02 31.12 112.02 26C112.02 21.584 111.284 18.032 109.812 15.344C108.34 12.592 105.844 11.216 102.324 11.216C99.252 11.216 96.852 12.368 95.124 14.672C93.396 16.976 92.532 20.752 92.532 26ZM133.247 4.784C135.807 3.632 138.847 2.736 142.367 2.096C145.887 1.392 149.567 1.04 153.406 1.04C156.735 1.04 159.519 1.456 161.759 2.288C163.999 3.056 165.759 4.176 167.039 5.648C168.383 7.12 169.311 8.88 169.823 10.928C170.399 12.976 170.687 15.28 170.687 17.84C170.687 20.656 170.591 23.504 170.399 26.384C170.207 29.2 170.079 31.984 170.015 34.736C170.015 37.488 170.111 40.176 170.303 42.8C170.495 45.36 170.975 47.792 171.743 50.096H161.567L159.551 43.472H159.071C157.791 45.456 155.999 47.184 153.695 48.656C151.455 50.064 148.543 50.768 144.959 50.768C142.719 50.768 140.703 50.448 138.911 49.808C137.119 49.104 135.583 48.144 134.303 46.928C133.023 45.648 132.031 44.176 131.327 42.512C130.623 40.784 130.271 38.864 130.271 36.752C130.271 33.808 130.911 31.344 132.191 29.36C133.535 27.312 135.423 25.68 137.855 24.464C140.351 23.184 143.295 22.32 146.687 21.872C150.143 21.36 153.983 21.2 158.207 21.392C158.655 17.808 158.399 15.248 157.439 13.712C156.479 12.112 154.335 11.312 151.007 11.312C148.511 11.312 145.855 11.568 143.039 12.08C140.287 12.592 138.015 13.264 136.223 14.096L133.247 4.784ZM149.087 40.496C151.583 40.496 153.567 39.952 155.039 38.864C156.511 37.712 157.599 36.496 158.303 35.216V28.976C156.319 28.784 154.399 28.752 152.543 28.88C150.751 29.008 149.151 29.296 147.743 29.744C146.335 30.192 145.215 30.832 144.383 31.664C143.551 32.496 143.135 33.552 143.135 34.832C143.135 36.624 143.647 38.032 144.671 39.056C145.759 40.016 147.231 40.496 149.087 40.496ZM207.656 13.712C205.672 13.008 203.88 12.656 202.28 12.656C200.04 12.656 198.152 13.264 196.616 14.48C195.144 15.632 194.152 17.136 193.64 18.992V50H181.16V2H190.856L192.296 8.336H192.68C193.768 5.968 195.24 4.144 197.096 2.864C198.952 1.584 201.128 0.943996 203.624 0.943996C205.288 0.943996 207.176 1.296 209.288 2L207.656 13.712Z" fill="black"/>
<rect y="69" width="253" height="10" fill="#EF3A00"/>
</svg>
